<svg width="14" height="15" viewBox="0 0 14 15" fill="none" xmlns="http://www.w3.org/2000/svg">
<path d="M3.48295 7.4375H9.44886V8.05729H3.48295V7.4375ZM8.14591 5.57812H3.48295V6.19792H8.88031C8.61185 6.02252 8.36545 5.81489 8.14591 5.57812ZM11.2386 6.80221V8.39446C11.2386 10.9393 7.65909 9.91667 7.65909 9.91667C7.65909 9.91667 8.56472 13.6354 6.08528 13.6354H1.69318V1.23958H7.3608C7.54693 0.775359 7.81599 0.357 8.14591 0H0.5V14.875H6.57867C8.46568 14.875 12.4318 10.3982 12.4318 8.91632V6.50781C12.0601 6.66896 11.658 6.76874 11.2386 6.80221ZM3.48295 4.33854H7.3608C7.28085 4.14021 7.2194 3.93196 7.17048 3.71875H3.48295V4.33854ZM13.625 2.78906C13.625 4.32924 12.4217 5.57812 10.9403 5.57812C9.45901 5.57812 8.25568 4.32924 8.25568 2.78906C8.25568 1.24888 9.45901 0 10.9403 0C12.4217 0 13.625 1.24888 13.625 2.78906ZM12.4318 2.47917H11.2386V1.23958H10.642V2.47917H9.44886V3.09896H10.642V4.33854H11.2386V3.09896H12.4318V2.47917Z" fill="white"/>
</svg>
